<mxfile host="65bd71144e">
    <diagram id="33kSGkLXwzWGu2hmDboM" name="Page-1">
        <mxGraphModel dx="1106" dy="692" grid="1" gridSize="10" guides="1" tooltips="1" connect="1" arrows="1" fold="1" page="1" pageScale="1" pageWidth="1169" pageHeight="827" math="0" shadow="0">
            <root>
                <mxCell id="0"/>
                <mxCell id="1" parent="0"/>
                <mxCell id="2" value="Actor" style="shape=umlActor;verticalLabelPosition=bottom;verticalAlign=top;html=1;outlineConnect=0;" vertex="1" parent="1">
                    <mxGeometry x="510" y="510" width="30" height="60" as="geometry"/>
                </mxCell>
                <mxCell id="3" value="hospital" style="ellipse;shape=cloud;whiteSpace=wrap;html=1;" vertex="1" parent="1">
                    <mxGeometry x="290" y="440" width="120" height="80" as="geometry"/>
                </mxCell>
                <mxCell id="4" value="interventions" style="ellipse;shape=cloud;whiteSpace=wrap;html=1;" vertex="1" parent="1">
                    <mxGeometry x="390" y="334" width="120" height="80" as="geometry"/>
                </mxCell>
                <mxCell id="5" value="units" style="ellipse;shape=cloud;whiteSpace=wrap;html=1;" vertex="1" parent="1">
                    <mxGeometry x="580" y="360" width="120" height="80" as="geometry"/>
                </mxCell>
                <mxCell id="6" value="patients" style="ellipse;shape=cloud;whiteSpace=wrap;html=1;" vertex="1" parent="1">
                    <mxGeometry x="630" y="450" width="120" height="80" as="geometry"/>
                </mxCell>
                <mxCell id="7" value="docotor_in_charge" style="ellipse;shape=cloud;whiteSpace=wrap;html=1;" vertex="1" parent="1">
                    <mxGeometry x="280" y="540" width="120" height="80" as="geometry"/>
                </mxCell>
                <mxCell id="t0Ubtdn9ijhq8eKSB-IP-7" value="doctors" style="ellipse;shape=cloud;whiteSpace=wrap;html=1;" vertex="1" parent="1">
                    <mxGeometry x="630" y="550" width="120" height="80" as="geometry"/>
                </mxCell>
            </root>
        </mxGraphModel>
    </diagram>
    <diagram id="vJnyDvvwzjShZsEp9BCS" name="Page-2">
        <mxGraphModel dx="1106" dy="692" grid="1" gridSize="10" guides="1" tooltips="1" connect="1" arrows="1" fold="1" page="1" pageScale="1" pageWidth="1169" pageHeight="827" math="0" shadow="0">
            <root>
                <mxCell id="0"/>
                <mxCell id="1" parent="0"/>
                <mxCell id="RRjit9Iey3aM72Mlfuf0-43" style="edgeStyle=none;html=1;exitX=1;exitY=0.5;exitDx=0;exitDy=0;entryX=0;entryY=0.5;entryDx=0;entryDy=0;endArrow=none;endFill=0;" edge="1" parent="1" source="RRjit9Iey3aM72Mlfuf0-1" target="RRjit9Iey3aM72Mlfuf0-4">
                    <mxGeometry relative="1" as="geometry"/>
                </mxCell>
                <mxCell id="RRjit9Iey3aM72Mlfuf0-1" value="hospital" style="rounded=1;whiteSpace=wrap;html=1;" vertex="1" parent="1">
                    <mxGeometry x="140" y="70" width="120" height="60" as="geometry"/>
                </mxCell>
                <mxCell id="RRjit9Iey3aM72Mlfuf0-2" value="units" style="rounded=1;whiteSpace=wrap;html=1;" vertex="1" parent="1">
                    <mxGeometry x="465" y="20" width="120" height="60" as="geometry"/>
                </mxCell>
                <mxCell id="RRjit9Iey3aM72Mlfuf0-6" style="edgeStyle=none;html=1;entryX=0;entryY=0.5;entryDx=0;entryDy=0;endArrow=none;endFill=0;" edge="1" parent="1" source="RRjit9Iey3aM72Mlfuf0-4" target="RRjit9Iey3aM72Mlfuf0-2">
                    <mxGeometry relative="1" as="geometry"/>
                </mxCell>
                <mxCell id="RRjit9Iey3aM72Mlfuf0-4" value="consists of" style="rhombus;whiteSpace=wrap;html=1;" vertex="1" parent="1">
                    <mxGeometry x="310" y="20" width="80" height="80" as="geometry"/>
                </mxCell>
                <mxCell id="RRjit9Iey3aM72Mlfuf0-8" style="edgeStyle=none;html=1;entryX=0;entryY=0;entryDx=0;entryDy=0;endArrow=none;endFill=0;" edge="1" parent="1" source="RRjit9Iey3aM72Mlfuf0-7" target="RRjit9Iey3aM72Mlfuf0-1">
                    <mxGeometry relative="1" as="geometry"/>
                </mxCell>
                <mxCell id="RRjit9Iey3aM72Mlfuf0-7" value="id" style="ellipse;whiteSpace=wrap;html=1;" vertex="1" parent="1">
                    <mxGeometry x="70" y="30" width="60" height="30" as="geometry"/>
                </mxCell>
                <mxCell id="RRjit9Iey3aM72Mlfuf0-13" style="edgeStyle=none;html=1;entryX=1;entryY=0.5;entryDx=0;entryDy=0;endArrow=none;endFill=0;" edge="1" parent="1" source="RRjit9Iey3aM72Mlfuf0-9" target="RRjit9Iey3aM72Mlfuf0-2">
                    <mxGeometry relative="1" as="geometry"/>
                </mxCell>
                <mxCell id="RRjit9Iey3aM72Mlfuf0-9" value="id" style="ellipse;whiteSpace=wrap;html=1;" vertex="1" parent="1">
                    <mxGeometry x="610" y="100" width="60" height="30" as="geometry"/>
                </mxCell>
                <mxCell id="RRjit9Iey3aM72Mlfuf0-15" style="edgeStyle=none;html=1;entryX=1;entryY=0.5;entryDx=0;entryDy=0;endArrow=none;endFill=0;" edge="1" parent="1" source="RRjit9Iey3aM72Mlfuf0-10" target="RRjit9Iey3aM72Mlfuf0-2">
                    <mxGeometry relative="1" as="geometry"/>
                </mxCell>
                <mxCell id="RRjit9Iey3aM72Mlfuf0-10" value="name" style="ellipse;whiteSpace=wrap;html=1;" vertex="1" parent="1">
                    <mxGeometry x="620" y="55" width="80" height="20" as="geometry"/>
                </mxCell>
                <mxCell id="RRjit9Iey3aM72Mlfuf0-14" style="edgeStyle=none;html=1;exitX=0;exitY=0.5;exitDx=0;exitDy=0;endArrow=none;endFill=0;" edge="1" parent="1" source="RRjit9Iey3aM72Mlfuf0-11" target="RRjit9Iey3aM72Mlfuf0-2">
                    <mxGeometry relative="1" as="geometry"/>
                </mxCell>
                <mxCell id="RRjit9Iey3aM72Mlfuf0-11" value="floor" style="ellipse;whiteSpace=wrap;html=1;" vertex="1" parent="1">
                    <mxGeometry x="610" y="10" width="60" height="30" as="geometry"/>
                </mxCell>
                <mxCell id="RRjit9Iey3aM72Mlfuf0-17" style="edgeStyle=none;html=1;entryX=0.5;entryY=1;entryDx=0;entryDy=0;endArrow=none;endFill=0;" edge="1" parent="1" source="RRjit9Iey3aM72Mlfuf0-16" target="RRjit9Iey3aM72Mlfuf0-2">
                    <mxGeometry relative="1" as="geometry"/>
                </mxCell>
                <mxCell id="RRjit9Iey3aM72Mlfuf0-16" value="has" style="rhombus;whiteSpace=wrap;html=1;" vertex="1" parent="1">
                    <mxGeometry x="500" y="130" width="50" height="50" as="geometry"/>
                </mxCell>
                <mxCell id="RRjit9Iey3aM72Mlfuf0-19" style="edgeStyle=none;html=1;entryX=0.5;entryY=1;entryDx=0;entryDy=0;endArrow=none;endFill=0;" edge="1" parent="1" source="RRjit9Iey3aM72Mlfuf0-18" target="RRjit9Iey3aM72Mlfuf0-16">
                    <mxGeometry relative="1" as="geometry"/>
                </mxCell>
                <mxCell id="RRjit9Iey3aM72Mlfuf0-24" style="edgeStyle=none;html=1;exitX=1;exitY=0.5;exitDx=0;exitDy=0;entryX=0;entryY=0.5;entryDx=0;entryDy=0;endArrow=none;endFill=0;" edge="1" parent="1" source="RRjit9Iey3aM72Mlfuf0-18" target="RRjit9Iey3aM72Mlfuf0-21">
                    <mxGeometry relative="1" as="geometry"/>
                </mxCell>
                <mxCell id="RRjit9Iey3aM72Mlfuf0-25" style="edgeStyle=none;html=1;exitX=1;exitY=0;exitDx=0;exitDy=0;entryX=0;entryY=1;entryDx=0;entryDy=0;endArrow=none;endFill=0;" edge="1" parent="1" source="RRjit9Iey3aM72Mlfuf0-18" target="RRjit9Iey3aM72Mlfuf0-20">
                    <mxGeometry relative="1" as="geometry"/>
                </mxCell>
                <mxCell id="RRjit9Iey3aM72Mlfuf0-26" style="edgeStyle=none;html=1;exitX=1;exitY=1;exitDx=0;exitDy=0;entryX=0;entryY=0;entryDx=0;entryDy=0;endArrow=none;endFill=0;" edge="1" parent="1" source="RRjit9Iey3aM72Mlfuf0-18" target="RRjit9Iey3aM72Mlfuf0-22">
                    <mxGeometry relative="1" as="geometry"/>
                </mxCell>
                <mxCell id="RRjit9Iey3aM72Mlfuf0-27" style="edgeStyle=none;html=1;exitX=1;exitY=0.75;exitDx=0;exitDy=0;entryX=0.333;entryY=0.067;entryDx=0;entryDy=0;entryPerimeter=0;endArrow=none;endFill=0;" edge="1" parent="1" source="RRjit9Iey3aM72Mlfuf0-18" target="RRjit9Iey3aM72Mlfuf0-23">
                    <mxGeometry relative="1" as="geometry"/>
                </mxCell>
                <mxCell id="RRjit9Iey3aM72Mlfuf0-18" value="doctor_in_charge" style="rounded=1;whiteSpace=wrap;html=1;" vertex="1" parent="1">
                    <mxGeometry x="465" y="230" width="120" height="60" as="geometry"/>
                </mxCell>
                <mxCell id="RRjit9Iey3aM72Mlfuf0-20" value="id" style="ellipse;whiteSpace=wrap;html=1;" vertex="1" parent="1">
                    <mxGeometry x="590" y="190" width="60" height="30" as="geometry"/>
                </mxCell>
                <mxCell id="RRjit9Iey3aM72Mlfuf0-21" value="name" style="ellipse;whiteSpace=wrap;html=1;" vertex="1" parent="1">
                    <mxGeometry x="630" y="240" width="60" height="30" as="geometry"/>
                </mxCell>
                <mxCell id="RRjit9Iey3aM72Mlfuf0-22" value="code" style="ellipse;whiteSpace=wrap;html=1;" vertex="1" parent="1">
                    <mxGeometry x="640" y="330" width="60" height="30" as="geometry"/>
                </mxCell>
                <mxCell id="RRjit9Iey3aM72Mlfuf0-23" value="speciality" style="ellipse;whiteSpace=wrap;html=1;" vertex="1" parent="1">
                    <mxGeometry x="650" y="290" width="60" height="30" as="geometry"/>
                </mxCell>
                <mxCell id="RRjit9Iey3aM72Mlfuf0-38" style="edgeStyle=none;html=1;entryX=0;entryY=0.5;entryDx=0;entryDy=0;endArrow=none;endFill=0;" edge="1" parent="1" source="RRjit9Iey3aM72Mlfuf0-29" target="RRjit9Iey3aM72Mlfuf0-34">
                    <mxGeometry relative="1" as="geometry"/>
                </mxCell>
                <mxCell id="RRjit9Iey3aM72Mlfuf0-39" style="edgeStyle=none;html=1;entryX=0;entryY=0.5;entryDx=0;entryDy=0;endArrow=none;endFill=0;" edge="1" parent="1" source="RRjit9Iey3aM72Mlfuf0-29" target="RRjit9Iey3aM72Mlfuf0-33">
                    <mxGeometry relative="1" as="geometry"/>
                </mxCell>
                <mxCell id="RRjit9Iey3aM72Mlfuf0-40" style="edgeStyle=none;html=1;entryX=0.013;entryY=0.3;entryDx=0;entryDy=0;entryPerimeter=0;endArrow=none;endFill=0;" edge="1" parent="1" source="RRjit9Iey3aM72Mlfuf0-29" target="RRjit9Iey3aM72Mlfuf0-36">
                    <mxGeometry relative="1" as="geometry"/>
                </mxCell>
                <mxCell id="RRjit9Iey3aM72Mlfuf0-41" style="edgeStyle=none;html=1;endArrow=none;endFill=0;" edge="1" parent="1" source="RRjit9Iey3aM72Mlfuf0-29" target="RRjit9Iey3aM72Mlfuf0-35">
                    <mxGeometry relative="1" as="geometry"/>
                </mxCell>
                <mxCell id="WsS0YdE0kdIjuFJPD7Yy-16" style="html=1;entryX=0.5;entryY=0;entryDx=0;entryDy=0;endArrow=none;endFill=0;" edge="1" parent="1" source="RRjit9Iey3aM72Mlfuf0-29" target="WsS0YdE0kdIjuFJPD7Yy-15">
                    <mxGeometry relative="1" as="geometry"/>
                </mxCell>
                <mxCell id="RRjit9Iey3aM72Mlfuf0-29" value="patients" style="rounded=1;whiteSpace=wrap;html=1;" vertex="1" parent="1">
                    <mxGeometry x="860" y="20" width="120" height="60" as="geometry"/>
                </mxCell>
                <mxCell id="RRjit9Iey3aM72Mlfuf0-31" style="edgeStyle=none;html=1;entryX=0;entryY=0.5;entryDx=0;entryDy=0;endArrow=none;endFill=0;" edge="1" parent="1" source="RRjit9Iey3aM72Mlfuf0-30" target="RRjit9Iey3aM72Mlfuf0-29">
                    <mxGeometry relative="1" as="geometry"/>
                </mxCell>
                <mxCell id="RRjit9Iey3aM72Mlfuf0-32" style="edgeStyle=none;html=1;endArrow=none;endFill=0;" edge="1" parent="1" source="RRjit9Iey3aM72Mlfuf0-30">
                    <mxGeometry relative="1" as="geometry">
                        <mxPoint x="580" y="40" as="targetPoint"/>
                    </mxGeometry>
                </mxCell>
                <mxCell id="RRjit9Iey3aM72Mlfuf0-30" value="admitted to" style="rhombus;whiteSpace=wrap;html=1;" vertex="1" parent="1">
                    <mxGeometry x="740" y="20" width="80" height="80" as="geometry"/>
                </mxCell>
                <mxCell id="RRjit9Iey3aM72Mlfuf0-33" value="social_security_number" style="ellipse;whiteSpace=wrap;html=1;" vertex="1" parent="1">
                    <mxGeometry x="1000" y="55" width="150" height="30" as="geometry"/>
                </mxCell>
                <mxCell id="RRjit9Iey3aM72Mlfuf0-34" value="id" style="ellipse;whiteSpace=wrap;html=1;" vertex="1" parent="1">
                    <mxGeometry x="1010" y="10" width="60" height="30" as="geometry"/>
                </mxCell>
                <mxCell id="RRjit9Iey3aM72Mlfuf0-35" value="age" style="ellipse;whiteSpace=wrap;html=1;" vertex="1" parent="1">
                    <mxGeometry x="940" y="130" width="60" height="30" as="geometry"/>
                </mxCell>
                <mxCell id="RRjit9Iey3aM72Mlfuf0-36" value="admission_date" style="ellipse;whiteSpace=wrap;html=1;" vertex="1" parent="1">
                    <mxGeometry x="990" y="100" width="150" height="30" as="geometry"/>
                </mxCell>
                <mxCell id="RRjit9Iey3aM72Mlfuf0-45" style="edgeStyle=none;html=1;entryX=0.058;entryY=1.05;entryDx=0;entryDy=0;entryPerimeter=0;endArrow=none;endFill=0;" edge="1" parent="1" source="RRjit9Iey3aM72Mlfuf0-44" target="RRjit9Iey3aM72Mlfuf0-29">
                    <mxGeometry relative="1" as="geometry"/>
                </mxCell>
                <mxCell id="RRjit9Iey3aM72Mlfuf0-46" style="edgeStyle=orthogonalEdgeStyle;html=1;entryX=0.75;entryY=1;entryDx=0;entryDy=0;endArrow=none;endFill=0;" edge="1" parent="1" source="RRjit9Iey3aM72Mlfuf0-44" target="RRjit9Iey3aM72Mlfuf0-1">
                    <mxGeometry relative="1" as="geometry">
                        <Array as="points">
                            <mxPoint x="810" y="390"/>
                            <mxPoint x="230" y="390"/>
                        </Array>
                    </mxGeometry>
                </mxCell>
                <mxCell id="RRjit9Iey3aM72Mlfuf0-44" value="arrive" style="rhombus;whiteSpace=wrap;html=1;" vertex="1" parent="1">
                    <mxGeometry x="770" y="140" width="80" height="80" as="geometry"/>
                </mxCell>
                <mxCell id="WsS0YdE0kdIjuFJPD7Yy-10" style="edgeStyle=none;html=1;entryX=1;entryY=0.5;entryDx=0;entryDy=0;endArrow=none;endFill=0;" edge="1" parent="1" source="nXs4w42gBNAjWTL5eLWW-1" target="WsS0YdE0kdIjuFJPD7Yy-5">
                    <mxGeometry relative="1" as="geometry"/>
                </mxCell>
                <mxCell id="nXs4w42gBNAjWTL5eLWW-1" value="interventions" style="rounded=1;whiteSpace=wrap;html=1;" vertex="1" parent="1">
                    <mxGeometry x="200" y="450" width="120" height="60" as="geometry"/>
                </mxCell>
                <mxCell id="WsS0YdE0kdIjuFJPD7Yy-4" style="edgeStyle=none;html=1;exitX=0.5;exitY=1;exitDx=0;exitDy=0;entryX=0;entryY=0.25;entryDx=0;entryDy=0;endArrow=none;endFill=0;" edge="1" parent="1" source="WsS0YdE0kdIjuFJPD7Yy-1" target="nXs4w42gBNAjWTL5eLWW-1">
                    <mxGeometry relative="1" as="geometry"/>
                </mxCell>
                <mxCell id="WsS0YdE0kdIjuFJPD7Yy-1" value="realized by" style="rhombus;whiteSpace=wrap;html=1;" vertex="1" parent="1">
                    <mxGeometry x="90" y="360" width="80" height="80" as="geometry"/>
                </mxCell>
                <mxCell id="WsS0YdE0kdIjuFJPD7Yy-3" style="html=1;endArrow=none;endFill=0;" edge="1" parent="1" source="WsS0YdE0kdIjuFJPD7Yy-2" target="WsS0YdE0kdIjuFJPD7Yy-1">
                    <mxGeometry relative="1" as="geometry"/>
                </mxCell>
                <mxCell id="WsS0YdE0kdIjuFJPD7Yy-2" value="doctors" style="rounded=1;whiteSpace=wrap;html=1;" vertex="1" parent="1">
                    <mxGeometry x="60" y="250" width="120" height="60" as="geometry"/>
                </mxCell>
                <mxCell id="WsS0YdE0kdIjuFJPD7Yy-5" value="id" style="ellipse;whiteSpace=wrap;html=1;" vertex="1" parent="1">
                    <mxGeometry x="110" y="490" width="50" height="40" as="geometry"/>
                </mxCell>
                <mxCell id="WsS0YdE0kdIjuFJPD7Yy-11" style="edgeStyle=none;html=1;entryX=0;entryY=1;entryDx=0;entryDy=0;endArrow=none;endFill=0;" edge="1" parent="1" source="WsS0YdE0kdIjuFJPD7Yy-7" target="nXs4w42gBNAjWTL5eLWW-1">
                    <mxGeometry relative="1" as="geometry"/>
                </mxCell>
                <mxCell id="WsS0YdE0kdIjuFJPD7Yy-7" value="date" style="ellipse;whiteSpace=wrap;html=1;" vertex="1" parent="1">
                    <mxGeometry x="130" y="550" width="50" height="40" as="geometry"/>
                </mxCell>
                <mxCell id="WsS0YdE0kdIjuFJPD7Yy-12" style="edgeStyle=none;html=1;entryX=0.25;entryY=1;entryDx=0;entryDy=0;endArrow=none;endFill=0;" edge="1" parent="1" source="WsS0YdE0kdIjuFJPD7Yy-8" target="nXs4w42gBNAjWTL5eLWW-1">
                    <mxGeometry relative="1" as="geometry"/>
                </mxCell>
                <mxCell id="WsS0YdE0kdIjuFJPD7Yy-8" value="symptoms" style="ellipse;whiteSpace=wrap;html=1;" vertex="1" parent="1">
                    <mxGeometry x="190" y="580" width="70" height="40" as="geometry"/>
                </mxCell>
                <mxCell id="WsS0YdE0kdIjuFJPD7Yy-13" style="edgeStyle=none;html=1;entryX=0.75;entryY=1;entryDx=0;entryDy=0;endArrow=none;endFill=0;" edge="1" parent="1" source="WsS0YdE0kdIjuFJPD7Yy-9" target="nXs4w42gBNAjWTL5eLWW-1">
                    <mxGeometry relative="1" as="geometry"/>
                </mxCell>
                <mxCell id="WsS0YdE0kdIjuFJPD7Yy-9" value="treatment" style="ellipse;whiteSpace=wrap;html=1;" vertex="1" parent="1">
                    <mxGeometry x="290" y="570" width="70" height="40" as="geometry"/>
                </mxCell>
                <mxCell id="WsS0YdE0kdIjuFJPD7Yy-17" style="edgeStyle=none;html=1;entryX=1;entryY=0.5;entryDx=0;entryDy=0;endArrow=none;endFill=0;" edge="1" parent="1" source="WsS0YdE0kdIjuFJPD7Yy-15" target="nXs4w42gBNAjWTL5eLWW-1">
                    <mxGeometry relative="1" as="geometry"/>
                </mxCell>
                <mxCell id="WsS0YdE0kdIjuFJPD7Yy-15" value="get" style="rhombus;whiteSpace=wrap;html=1;" vertex="1" parent="1">
                    <mxGeometry x="800" y="460" width="80" height="80" as="geometry"/>
                </mxCell>
            </root>
        </mxGraphModel>
    </diagram>
    <diagram id="emjUejq9AxNvAFaxdKQp" name="Page-3">
        <mxGraphModel dx="1106" dy="692" grid="1" gridSize="10" guides="1" tooltips="1" connect="1" arrows="1" fold="1" page="1" pageScale="1" pageWidth="1169" pageHeight="827" math="0" shadow="0">
            <root>
                <mxCell id="0"/>
                <mxCell id="1" parent="0"/>
                <mxCell id="_T33ZgdzdKw2B3GF3wP1-5" value="hospital" style="swimlane;fontStyle=0;childLayout=stackLayout;horizontal=1;startSize=26;fillColor=none;horizontalStack=0;resizeParent=1;resizeParentMax=0;resizeLast=0;collapsible=1;marginBottom=0;" vertex="1" parent="1">
                    <mxGeometry x="30" y="40" width="140" height="52" as="geometry"/>
                </mxCell>
                <mxCell id="_T33ZgdzdKw2B3GF3wP1-6" value="id: int" style="text;strokeColor=none;fillColor=none;align=left;verticalAlign=top;spacingLeft=4;spacingRight=4;overflow=hidden;rotatable=0;points=[[0,0.5],[1,0.5]];portConstraint=eastwest;" vertex="1" parent="_T33ZgdzdKw2B3GF3wP1-5">
                    <mxGeometry y="26" width="140" height="26" as="geometry"/>
                </mxCell>
                <mxCell id="WW5LS6Jm7_IRiRWPIE03-3" style="edgeStyle=orthogonalEdgeStyle;html=1;entryX=0;entryY=0.5;entryDx=0;entryDy=0;startArrow=ERone;startFill=0;endArrow=ERone;endFill=0;exitX=0;exitY=0.5;exitDx=0;exitDy=0;" edge="1" parent="1" source="_T33ZgdzdKw2B3GF3wP1-10" target="WW5LS6Jm7_IRiRWPIE03-1">
                    <mxGeometry relative="1" as="geometry">
                        <Array as="points">
                            <mxPoint x="260" y="79"/>
                            <mxPoint x="260" y="427"/>
                        </Array>
                    </mxGeometry>
                </mxCell>
                <mxCell id="_T33ZgdzdKw2B3GF3wP1-9" value="units" style="swimlane;fontStyle=1;align=center;verticalAlign=top;childLayout=stackLayout;horizontal=1;startSize=26;horizontalStack=0;resizeParent=1;resizeParentMax=0;resizeLast=0;collapsible=1;marginBottom=0;" vertex="1" parent="1">
                    <mxGeometry x="280" y="40" width="160" height="138" as="geometry"/>
                </mxCell>
                <mxCell id="_T33ZgdzdKw2B3GF3wP1-10" value="id: int" style="text;strokeColor=none;fillColor=none;align=left;verticalAlign=top;spacingLeft=4;spacingRight=4;overflow=hidden;rotatable=0;points=[[0,0.5],[1,0.5]];portConstraint=eastwest;" vertex="1" parent="_T33ZgdzdKw2B3GF3wP1-9">
                    <mxGeometry y="26" width="160" height="26" as="geometry"/>
                </mxCell>
                <mxCell id="_T33ZgdzdKw2B3GF3wP1-11" value="" style="line;strokeWidth=1;fillColor=none;align=left;verticalAlign=middle;spacingTop=-1;spacingLeft=3;spacingRight=3;rotatable=0;labelPosition=right;points=[];portConstraint=eastwest;strokeColor=inherit;" vertex="1" parent="_T33ZgdzdKw2B3GF3wP1-9">
                    <mxGeometry y="52" width="160" height="8" as="geometry"/>
                </mxCell>
                <mxCell id="_T33ZgdzdKw2B3GF3wP1-12" value="floor: integer" style="text;strokeColor=none;fillColor=none;align=left;verticalAlign=top;spacingLeft=4;spacingRight=4;overflow=hidden;rotatable=0;points=[[0,0.5],[1,0.5]];portConstraint=eastwest;" vertex="1" parent="_T33ZgdzdKw2B3GF3wP1-9">
                    <mxGeometry y="60" width="160" height="26" as="geometry"/>
                </mxCell>
                <mxCell id="dH44Iqc0d6D52jzfh8_t-1" value="name: varchar(30)" style="text;strokeColor=none;fillColor=none;align=left;verticalAlign=top;spacingLeft=4;spacingRight=4;overflow=hidden;rotatable=0;points=[[0,0.5],[1,0.5]];portConstraint=eastwest;" vertex="1" parent="_T33ZgdzdKw2B3GF3wP1-9">
                    <mxGeometry y="86" width="160" height="26" as="geometry"/>
                </mxCell>
                <mxCell id="sHMRTY6Toc_dK7phEdOA-2" value="fk_hospital_id: int" style="text;strokeColor=none;fillColor=none;align=left;verticalAlign=top;spacingLeft=4;spacingRight=4;overflow=hidden;rotatable=0;points=[[0,0.5],[1,0.5]];portConstraint=eastwest;" vertex="1" parent="_T33ZgdzdKw2B3GF3wP1-9">
                    <mxGeometry y="112" width="160" height="26" as="geometry"/>
                </mxCell>
                <mxCell id="sHMRTY6Toc_dK7phEdOA-3" style="edgeStyle=orthogonalEdgeStyle;html=1;entryX=0;entryY=0.5;entryDx=0;entryDy=0;endArrow=ERmany;endFill=0;startArrow=ERone;startFill=0;" edge="1" parent="1" source="_T33ZgdzdKw2B3GF3wP1-6" target="sHMRTY6Toc_dK7phEdOA-2">
                    <mxGeometry relative="1" as="geometry"/>
                </mxCell>
                <mxCell id="K9yqM4WlUi0mvmnD28zI-1" value="patients" style="swimlane;fontStyle=1;align=center;verticalAlign=top;childLayout=stackLayout;horizontal=1;startSize=26;horizontalStack=0;resizeParent=1;resizeParentMax=0;resizeLast=0;collapsible=1;marginBottom=0;" vertex="1" parent="1">
                    <mxGeometry x="540" y="40" width="160" height="164" as="geometry"/>
                </mxCell>
                <mxCell id="K9yqM4WlUi0mvmnD28zI-2" value="id: int" style="text;strokeColor=none;fillColor=none;align=left;verticalAlign=top;spacingLeft=4;spacingRight=4;overflow=hidden;rotatable=0;points=[[0,0.5],[1,0.5]];portConstraint=eastwest;" vertex="1" parent="K9yqM4WlUi0mvmnD28zI-1">
                    <mxGeometry y="26" width="160" height="26" as="geometry"/>
                </mxCell>
                <mxCell id="K9yqM4WlUi0mvmnD28zI-3" value="" style="line;strokeWidth=1;fillColor=none;align=left;verticalAlign=middle;spacingTop=-1;spacingLeft=3;spacingRight=3;rotatable=0;labelPosition=right;points=[];portConstraint=eastwest;strokeColor=inherit;" vertex="1" parent="K9yqM4WlUi0mvmnD28zI-1">
                    <mxGeometry y="52" width="160" height="8" as="geometry"/>
                </mxCell>
                <mxCell id="K9yqM4WlUi0mvmnD28zI-4" value="social_security_number: int" style="text;strokeColor=none;fillColor=none;align=left;verticalAlign=top;spacingLeft=4;spacingRight=4;overflow=hidden;rotatable=0;points=[[0,0.5],[1,0.5]];portConstraint=eastwest;" vertex="1" parent="K9yqM4WlUi0mvmnD28zI-1">
                    <mxGeometry y="60" width="160" height="26" as="geometry"/>
                </mxCell>
                <mxCell id="K9yqM4WlUi0mvmnD28zI-5" value="age: name" style="text;strokeColor=none;fillColor=none;align=left;verticalAlign=top;spacingLeft=4;spacingRight=4;overflow=hidden;rotatable=0;points=[[0,0.5],[1,0.5]];portConstraint=eastwest;" vertex="1" parent="K9yqM4WlUi0mvmnD28zI-1">
                    <mxGeometry y="86" width="160" height="26" as="geometry"/>
                </mxCell>
                <mxCell id="K9yqM4WlUi0mvmnD28zI-6" value="admission_date: Datetime" style="text;strokeColor=none;fillColor=none;align=left;verticalAlign=top;spacingLeft=4;spacingRight=4;overflow=hidden;rotatable=0;points=[[0,0.5],[1,0.5]];portConstraint=eastwest;" vertex="1" parent="K9yqM4WlUi0mvmnD28zI-1">
                    <mxGeometry y="112" width="160" height="26" as="geometry"/>
                </mxCell>
                <mxCell id="xlqsLJ1D4Vz-BJIviT0r-1" value="fk_units_id: int" style="text;strokeColor=none;fillColor=none;align=left;verticalAlign=top;spacingLeft=4;spacingRight=4;overflow=hidden;rotatable=0;points=[[0,0.5],[1,0.5]];portConstraint=eastwest;" vertex="1" parent="K9yqM4WlUi0mvmnD28zI-1">
                    <mxGeometry y="138" width="160" height="26" as="geometry"/>
                </mxCell>
                <mxCell id="xlqsLJ1D4Vz-BJIviT0r-2" style="edgeStyle=orthogonalEdgeStyle;html=1;entryX=0;entryY=0.5;entryDx=0;entryDy=0;startArrow=ERone;startFill=0;endArrow=ERmany;endFill=0;" edge="1" parent="1" source="_T33ZgdzdKw2B3GF3wP1-10" target="xlqsLJ1D4Vz-BJIviT0r-1">
                    <mxGeometry relative="1" as="geometry"/>
                </mxCell>
                <mxCell id="zD3ryyhfVY27PAzO8li6-1" value="doctor_in_charge" style="swimlane;fontStyle=1;align=center;verticalAlign=top;childLayout=stackLayout;horizontal=1;startSize=26;horizontalStack=0;resizeParent=1;resizeParentMax=0;resizeLast=0;collapsible=1;marginBottom=0;" vertex="1" parent="1">
                    <mxGeometry x="280" y="276" width="160" height="164" as="geometry"/>
                </mxCell>
                <mxCell id="zD3ryyhfVY27PAzO8li6-2" value="id: int" style="text;strokeColor=none;fillColor=none;align=left;verticalAlign=top;spacingLeft=4;spacingRight=4;overflow=hidden;rotatable=0;points=[[0,0.5],[1,0.5]];portConstraint=eastwest;" vertex="1" parent="zD3ryyhfVY27PAzO8li6-1">
                    <mxGeometry y="26" width="160" height="26" as="geometry"/>
                </mxCell>
                <mxCell id="zD3ryyhfVY27PAzO8li6-3" value="" style="line;strokeWidth=1;fillColor=none;align=left;verticalAlign=middle;spacingTop=-1;spacingLeft=3;spacingRight=3;rotatable=0;labelPosition=right;points=[];portConstraint=eastwest;strokeColor=inherit;" vertex="1" parent="zD3ryyhfVY27PAzO8li6-1">
                    <mxGeometry y="52" width="160" height="8" as="geometry"/>
                </mxCell>
                <mxCell id="zD3ryyhfVY27PAzO8li6-4" value="name: varchar(20)" style="text;strokeColor=none;fillColor=none;align=left;verticalAlign=top;spacingLeft=4;spacingRight=4;overflow=hidden;rotatable=0;points=[[0,0.5],[1,0.5]];portConstraint=eastwest;" vertex="1" parent="zD3ryyhfVY27PAzO8li6-1">
                    <mxGeometry y="60" width="160" height="26" as="geometry"/>
                </mxCell>
                <mxCell id="zD3ryyhfVY27PAzO8li6-5" value="code: integer" style="text;strokeColor=none;fillColor=none;align=left;verticalAlign=top;spacingLeft=4;spacingRight=4;overflow=hidden;rotatable=0;points=[[0,0.5],[1,0.5]];portConstraint=eastwest;" vertex="1" parent="zD3ryyhfVY27PAzO8li6-1">
                    <mxGeometry y="86" width="160" height="26" as="geometry"/>
                </mxCell>
                <mxCell id="zD3ryyhfVY27PAzO8li6-6" value="speciality: varchar(20)" style="text;strokeColor=none;fillColor=none;align=left;verticalAlign=top;spacingLeft=4;spacingRight=4;overflow=hidden;rotatable=0;points=[[0,0.5],[1,0.5]];portConstraint=eastwest;" vertex="1" parent="zD3ryyhfVY27PAzO8li6-1">
                    <mxGeometry y="112" width="160" height="26" as="geometry"/>
                </mxCell>
                <mxCell id="WW5LS6Jm7_IRiRWPIE03-1" value="fk_units_id: int" style="text;strokeColor=none;fillColor=none;align=left;verticalAlign=top;spacingLeft=4;spacingRight=4;overflow=hidden;rotatable=0;points=[[0,0.5],[1,0.5]];portConstraint=eastwest;" vertex="1" parent="zD3ryyhfVY27PAzO8li6-1">
                    <mxGeometry y="138" width="160" height="26" as="geometry"/>
                </mxCell>
                <mxCell id="xUr1EpXfA1L0yhfMIKQ9-1" value="interventions" style="swimlane;fontStyle=1;align=center;verticalAlign=top;childLayout=stackLayout;horizontal=1;startSize=26;horizontalStack=0;resizeParent=1;resizeParentMax=0;resizeLast=0;collapsible=1;marginBottom=0;" vertex="1" parent="1">
                    <mxGeometry x="550" y="480" width="160" height="164" as="geometry"/>
                </mxCell>
                <mxCell id="xUr1EpXfA1L0yhfMIKQ9-2" value="id: int" style="text;strokeColor=none;fillColor=none;align=left;verticalAlign=top;spacingLeft=4;spacingRight=4;overflow=hidden;rotatable=0;points=[[0,0.5],[1,0.5]];portConstraint=eastwest;" vertex="1" parent="xUr1EpXfA1L0yhfMIKQ9-1">
                    <mxGeometry y="26" width="160" height="26" as="geometry"/>
                </mxCell>
                <mxCell id="xUr1EpXfA1L0yhfMIKQ9-3" value="" style="line;strokeWidth=1;fillColor=none;align=left;verticalAlign=middle;spacingTop=-1;spacingLeft=3;spacingRight=3;rotatable=0;labelPosition=right;points=[];portConstraint=eastwest;strokeColor=inherit;" vertex="1" parent="xUr1EpXfA1L0yhfMIKQ9-1">
                    <mxGeometry y="52" width="160" height="8" as="geometry"/>
                </mxCell>
                <mxCell id="xUr1EpXfA1L0yhfMIKQ9-4" value="date: DateTime" style="text;strokeColor=none;fillColor=none;align=left;verticalAlign=top;spacingLeft=4;spacingRight=4;overflow=hidden;rotatable=0;points=[[0,0.5],[1,0.5]];portConstraint=eastwest;" vertex="1" parent="xUr1EpXfA1L0yhfMIKQ9-1">
                    <mxGeometry y="60" width="160" height="26" as="geometry"/>
                </mxCell>
                <mxCell id="xUr1EpXfA1L0yhfMIKQ9-5" value="symptoms: varchar(100)" style="text;strokeColor=none;fillColor=none;align=left;verticalAlign=top;spacingLeft=4;spacingRight=4;overflow=hidden;rotatable=0;points=[[0,0.5],[1,0.5]];portConstraint=eastwest;" vertex="1" parent="xUr1EpXfA1L0yhfMIKQ9-1">
                    <mxGeometry y="86" width="160" height="26" as="geometry"/>
                </mxCell>
                <mxCell id="xUr1EpXfA1L0yhfMIKQ9-6" value="treatment: varchar(100)" style="text;strokeColor=none;fillColor=none;align=left;verticalAlign=top;spacingLeft=4;spacingRight=4;overflow=hidden;rotatable=0;points=[[0,0.5],[1,0.5]];portConstraint=eastwest;" vertex="1" parent="xUr1EpXfA1L0yhfMIKQ9-1">
                    <mxGeometry y="112" width="160" height="26" as="geometry"/>
                </mxCell>
                <mxCell id="xUr1EpXfA1L0yhfMIKQ9-7" value="fk_units_id: int" style="text;strokeColor=none;fillColor=none;align=left;verticalAlign=top;spacingLeft=4;spacingRight=4;overflow=hidden;rotatable=0;points=[[0,0.5],[1,0.5]];portConstraint=eastwest;" vertex="1" parent="xUr1EpXfA1L0yhfMIKQ9-1">
                    <mxGeometry y="138" width="160" height="26" as="geometry"/>
                </mxCell>
                <mxCell id="xUr1EpXfA1L0yhfMIKQ9-8" value="patients_interventions" style="swimlane;fontStyle=1;align=center;verticalAlign=top;childLayout=stackLayout;horizontal=1;startSize=26;horizontalStack=0;resizeParent=1;resizeParentMax=0;resizeLast=0;collapsible=1;marginBottom=0;" vertex="1" parent="1">
                    <mxGeometry x="540" y="300" width="160" height="86" as="geometry"/>
                </mxCell>
                <mxCell id="xUr1EpXfA1L0yhfMIKQ9-9" value="fk_patients_id" style="text;strokeColor=none;fillColor=none;align=left;verticalAlign=top;spacingLeft=4;spacingRight=4;overflow=hidden;rotatable=0;points=[[0,0.5],[1,0.5]];portConstraint=eastwest;" vertex="1" parent="xUr1EpXfA1L0yhfMIKQ9-8">
                    <mxGeometry y="26" width="160" height="26" as="geometry"/>
                </mxCell>
                <mxCell id="xUr1EpXfA1L0yhfMIKQ9-10" value="" style="line;strokeWidth=1;fillColor=none;align=left;verticalAlign=middle;spacingTop=-1;spacingLeft=3;spacingRight=3;rotatable=0;labelPosition=right;points=[];portConstraint=eastwest;strokeColor=inherit;" vertex="1" parent="xUr1EpXfA1L0yhfMIKQ9-8">
                    <mxGeometry y="52" width="160" height="8" as="geometry"/>
                </mxCell>
                <mxCell id="xUr1EpXfA1L0yhfMIKQ9-11" value="fk_interventions_id" style="text;strokeColor=none;fillColor=none;align=left;verticalAlign=top;spacingLeft=4;spacingRight=4;overflow=hidden;rotatable=0;points=[[0,0.5],[1,0.5]];portConstraint=eastwest;" vertex="1" parent="xUr1EpXfA1L0yhfMIKQ9-8">
                    <mxGeometry y="60" width="160" height="26" as="geometry"/>
                </mxCell>
                <mxCell id="ZDVKsEgw_91ekBNfetbR-2" style="edgeStyle=orthogonalEdgeStyle;html=1;exitX=1;exitY=0.5;exitDx=0;exitDy=0;entryX=1;entryY=0.5;entryDx=0;entryDy=0;startArrow=ERone;startFill=0;endArrow=ERmany;endFill=0;" edge="1" parent="1" source="K9yqM4WlUi0mvmnD28zI-2" target="xUr1EpXfA1L0yhfMIKQ9-9">
                    <mxGeometry relative="1" as="geometry">
                        <Array as="points">
                            <mxPoint x="740" y="79"/>
                            <mxPoint x="740" y="339"/>
                        </Array>
                    </mxGeometry>
                </mxCell>
                <mxCell id="ZDVKsEgw_91ekBNfetbR-3" style="edgeStyle=orthogonalEdgeStyle;html=1;exitX=1;exitY=0.5;exitDx=0;exitDy=0;entryX=1;entryY=0.5;entryDx=0;entryDy=0;startArrow=ERone;startFill=0;endArrow=ERmany;endFill=0;" edge="1" parent="1" source="xUr1EpXfA1L0yhfMIKQ9-2" target="xUr1EpXfA1L0yhfMIKQ9-11">
                    <mxGeometry relative="1" as="geometry">
                        <Array as="points">
                            <mxPoint x="750" y="519"/>
                            <mxPoint x="750" y="373"/>
                        </Array>
                    </mxGeometry>
                </mxCell>
                <mxCell id="Vp99KYDdvUmyqQZgHkT--1" value="doctors" style="swimlane;fontStyle=1;align=center;verticalAlign=top;childLayout=stackLayout;horizontal=1;startSize=26;horizontalStack=0;resizeParent=1;resizeParentMax=0;resizeLast=0;collapsible=1;marginBottom=0;" vertex="1" parent="1">
                    <mxGeometry x="910" y="300" width="160" height="86" as="geometry"/>
                </mxCell>
                <mxCell id="Vp99KYDdvUmyqQZgHkT--2" value="fk_doctors_id: int" style="text;strokeColor=none;fillColor=none;align=left;verticalAlign=top;spacingLeft=4;spacingRight=4;overflow=hidden;rotatable=0;points=[[0,0.5],[1,0.5]];portConstraint=eastwest;" vertex="1" parent="Vp99KYDdvUmyqQZgHkT--1">
                    <mxGeometry y="26" width="160" height="26" as="geometry"/>
                </mxCell>
                <mxCell id="Vp99KYDdvUmyqQZgHkT--3" value="" style="line;strokeWidth=1;fillColor=none;align=left;verticalAlign=middle;spacingTop=-1;spacingLeft=3;spacingRight=3;rotatable=0;labelPosition=right;points=[];portConstraint=eastwest;strokeColor=inherit;" vertex="1" parent="Vp99KYDdvUmyqQZgHkT--1">
                    <mxGeometry y="52" width="160" height="8" as="geometry"/>
                </mxCell>
                <mxCell id="Vp99KYDdvUmyqQZgHkT--4" value="fk_interventions_id" style="text;strokeColor=none;fillColor=none;align=left;verticalAlign=top;spacingLeft=4;spacingRight=4;overflow=hidden;rotatable=0;points=[[0,0.5],[1,0.5]];portConstraint=eastwest;" vertex="1" parent="Vp99KYDdvUmyqQZgHkT--1">
                    <mxGeometry y="60" width="160" height="26" as="geometry"/>
                </mxCell>
                <mxCell id="Vp99KYDdvUmyqQZgHkT--5" value="intervetions_doctors" style="swimlane;fontStyle=1;align=center;verticalAlign=top;childLayout=stackLayout;horizontal=1;startSize=26;horizontalStack=0;resizeParent=1;resizeParentMax=0;resizeLast=0;collapsible=1;marginBottom=0;" vertex="1" parent="1">
                    <mxGeometry x="870" y="510" width="160" height="86" as="geometry"/>
                </mxCell>
                <mxCell id="Vp99KYDdvUmyqQZgHkT--6" value="fk _intervention_id: int" style="text;strokeColor=none;fillColor=none;align=left;verticalAlign=top;spacingLeft=4;spacingRight=4;overflow=hidden;rotatable=0;points=[[0,0.5],[1,0.5]];portConstraint=eastwest;" vertex="1" parent="Vp99KYDdvUmyqQZgHkT--5">
                    <mxGeometry y="26" width="160" height="26" as="geometry"/>
                </mxCell>
                <mxCell id="Vp99KYDdvUmyqQZgHkT--7" value="" style="line;strokeWidth=1;fillColor=none;align=left;verticalAlign=middle;spacingTop=-1;spacingLeft=3;spacingRight=3;rotatable=0;labelPosition=right;points=[];portConstraint=eastwest;strokeColor=inherit;" vertex="1" parent="Vp99KYDdvUmyqQZgHkT--5">
                    <mxGeometry y="52" width="160" height="8" as="geometry"/>
                </mxCell>
                <mxCell id="Vp99KYDdvUmyqQZgHkT--8" value="fk_doctors_id: int" style="text;strokeColor=none;fillColor=none;align=left;verticalAlign=top;spacingLeft=4;spacingRight=4;overflow=hidden;rotatable=0;points=[[0,0.5],[1,0.5]];portConstraint=eastwest;" vertex="1" parent="Vp99KYDdvUmyqQZgHkT--5">
                    <mxGeometry y="60" width="160" height="26" as="geometry"/>
                </mxCell>
                <mxCell id="Vp99KYDdvUmyqQZgHkT--9" style="edgeStyle=orthogonalEdgeStyle;html=1;entryX=0;entryY=0.5;entryDx=0;entryDy=0;startArrow=ERone;startFill=0;endArrow=ERmany;endFill=0;" edge="1" parent="1" source="xUr1EpXfA1L0yhfMIKQ9-2" target="Vp99KYDdvUmyqQZgHkT--6">
                    <mxGeometry relative="1" as="geometry"/>
                </mxCell>
                <mxCell id="Vp99KYDdvUmyqQZgHkT--10" style="edgeStyle=orthogonalEdgeStyle;html=1;entryX=1;entryY=0.5;entryDx=0;entryDy=0;startArrow=ERmany;startFill=0;endArrow=ERone;endFill=0;exitX=1;exitY=0.5;exitDx=0;exitDy=0;" edge="1" parent="1" source="Vp99KYDdvUmyqQZgHkT--8" target="Vp99KYDdvUmyqQZgHkT--4">
                    <mxGeometry relative="1" as="geometry">
                        <Array as="points">
                            <mxPoint x="1100" y="583"/>
                            <mxPoint x="1100" y="373"/>
                        </Array>
                    </mxGeometry>
                </mxCell>
            </root>
        </mxGraphModel>
    </diagram>
</mxfile>